<svg xmlns="http://www.w3.org/2000/svg" xmlns:xlink="http://www.w3.org/1999/xlink" contentStyleType="text/css" height="349px" preserveAspectRatio="none" style="width:577px;height:349px;background:#FFFFFF;" version="1.1" viewBox="0 0 577 349" width="577px" zoomAndPan="magnify"><defs/><g><!--class Funcionario--><g id="elem_Funcionario"><rect codeLine="1" fill="#F1F1F1" height="129.4844" id="Funcionario" rx="2.5" ry="2.5" style="stroke:#181818;stroke-width:0.5;" width="563.6807" x="7" y="213"/><ellipse cx="243.7832" cy="229" fill="#ADD1B2" rx="11" ry="11" style="stroke:#181818;stroke-width:1.0;"/><path d="M246.752,234.6406 Q246.1738,234.9375 245.5332,235.0781 Q244.8926,235.2344 244.1895,235.2344 Q241.6895,235.2344 240.3613,233.5938 Q239.0488,231.9375 239.0488,228.8125 Q239.0488,225.6875 240.3613,224.0313 Q241.6895,222.375 244.1895,222.375 Q244.8926,222.375 245.5332,222.5313 Q246.1895,222.6875 246.752,222.9844 L246.752,225.7031 Q246.127,225.125 245.5332,224.8594 Q244.9395,224.5781 244.3145,224.5781 Q242.9707,224.5781 242.2832,225.6563 Q241.5957,226.7188 241.5957,228.8125 Q241.5957,230.9063 242.2832,231.9844 Q242.9707,233.0469 244.3145,233.0469 Q244.9395,233.0469 245.5332,232.7813 Q246.127,232.5 246.752,231.9219 L246.752,234.6406 Z " fill="#000000"/><text fill="#000000" font-family="sans-serif" font-size="14" lengthAdjust="spacing" textLength="81.6143" x="264.2832" y="233.8467">Funcionario</text><line style="stroke:#181818;stroke-width:0.5;" x1="8" x2="569.6807" y1="245" y2="245"/><rect fill="none" height="6" style="stroke:#C82930;stroke-width:1.0;" width="6" x="15" y="255.6484"/><text fill="#000000" font-family="sans-serif" font-size="14" lengthAdjust="spacing" textLength="130.1973" x="27" y="261.9951">matricula: number</text><rect fill="none" height="6" style="stroke:#C82930;stroke-width:1.0;" width="6" x="15" y="271.9453"/><text fill="#000000" font-family="sans-serif" font-size="14" lengthAdjust="spacing" textLength="89.0449" x="27" y="278.292">nome: string</text><rect fill="none" height="6" style="stroke:#C82930;stroke-width:1.0;" width="6" x="15" y="288.2422"/><text fill="#000000" font-family="sans-serif" font-size="14" lengthAdjust="spacing" textLength="88.8398" x="27" y="294.5889">cargo: string</text><rect fill="none" height="6" style="stroke:#C82930;stroke-width:1.0;" width="6" x="15" y="304.5391"/><text fill="#000000" font-family="sans-serif" font-size="14" lengthAdjust="spacing" textLength="110.3594" x="27" y="310.8857">salario: number</text><line style="stroke:#181818;stroke-width:0.5;" x1="8" x2="569.6807" y1="318.1875" y2="318.1875"/><ellipse cx="18" cy="331.8359" fill="#84BE84" rx="3" ry="3" style="stroke:#038048;stroke-width:1.0;"/><text fill="#000000" font-family="sans-serif" font-size="14" lengthAdjust="spacing" textLength="537.6807" x="27" y="335.1826">Funcionario(matricula: number, nome: string, cargo: string, salario: number)</text></g><!--class Empresa--><g id="elem_Empresa"><rect codeLine="9" fill="#F1F1F1" height="129.4844" id="Empresa" rx="2.5" ry="2.5" style="stroke:#181818;stroke-width:0.5;" width="488.5879" x="44.5" y="7"/><ellipse cx="253.7378" cy="23" fill="#ADD1B2" rx="11" ry="11" style="stroke:#181818;stroke-width:1.0;"/><path d="M256.7065,28.6406 Q256.1284,28.9375 255.4878,29.0781 Q254.8472,29.2344 254.144,29.2344 Q251.644,29.2344 250.3159,27.5938 Q249.0034,25.9375 249.0034,22.8125 Q249.0034,19.6875 250.3159,18.0313 Q251.644,16.375 254.144,16.375 Q254.8472,16.375 255.4878,16.5313 Q256.144,16.6875 256.7065,16.9844 L256.7065,19.7031 Q256.0815,19.125 255.4878,18.8594 Q254.894,18.5781 254.269,18.5781 Q252.9253,18.5781 252.2378,19.6563 Q251.5503,20.7188 251.5503,22.8125 Q251.5503,24.9063 252.2378,25.9844 Q252.9253,27.0469 254.269,27.0469 Q254.894,27.0469 255.4878,26.7813 Q256.0815,26.5 256.7065,25.9219 L256.7065,28.6406 Z " fill="#000000"/><text fill="#000000" font-family="sans-serif" font-size="14" lengthAdjust="spacing" textLength="61.6123" x="274.2378" y="27.8467">Empresa</text><line style="stroke:#181818;stroke-width:0.5;" x1="45.5" x2="532.0879" y1="39" y2="39"/><rect fill="none" height="6" style="stroke:#C82930;stroke-width:1.0;" width="6" x="52.5" y="49.6484"/><text fill="#000000" font-family="sans-serif" font-size="14" lengthAdjust="spacing" textLength="187.4893" x="64.5" y="55.9951">funcionarios: Funcionario[]</text><line style="stroke:#181818;stroke-width:0.5;" x1="45.5" x2="532.0879" y1="63.2969" y2="63.2969"/><ellipse cx="55.5" cy="76.9453" fill="#84BE84" rx="3" ry="3" style="stroke:#038048;stroke-width:1.0;"/><text fill="#000000" font-family="sans-serif" font-size="14" lengthAdjust="spacing" textLength="72.5361" x="64.5" y="80.292">Empresa()</text><ellipse cx="55.5" cy="93.2422" fill="#84BE84" rx="3" ry="3" style="stroke:#038048;stroke-width:1.0;"/><text fill="#000000" font-family="sans-serif" font-size="14" lengthAdjust="spacing" textLength="365.3193" x="64.5" y="96.5889">adicionarFuncionario(funcionario: Funcionario): void</text><ellipse cx="55.5" cy="109.5391" fill="#84BE84" rx="3" ry="3" style="stroke:#038048;stroke-width:1.0;"/><text fill="#000000" font-family="sans-serif" font-size="14" lengthAdjust="spacing" textLength="408.3037" x="64.5" y="112.8857">atualizarSalario(matricula: number, salario: number): void</text><ellipse cx="55.5" cy="125.8359" fill="#84BE84" rx="3" ry="3" style="stroke:#038048;stroke-width:1.0;"/><text fill="#000000" font-family="sans-serif" font-size="14" lengthAdjust="spacing" textLength="462.5879" x="64.5" y="129.1826">consultarFuncionario(matricula: number): Funcionario | undefined</text></g><!--link Empresa to Funcionario--><g id="link_Empresa_Funcionario"><path codeLine="17" d="M289,136.21 C289,160.64 289,182.5 289,206.92 " fill="none" id="Empresa-to-Funcionario" style="stroke:#181818;stroke-width:1.0;"/><polygon fill="#181818" points="289,212.92,293,203.92,289,207.92,285,203.92,289,212.92" style="stroke:#181818;stroke-width:1.0;"/><text fill="#000000" font-family="sans-serif" font-size="13" lengthAdjust="spacing" textLength="49.0991" x="290" y="179.0669">cont&#233;m</text></g><!--SRC=[RP7BRi8m44Nt_eeHgqGb210jA8kgQe5AbAYeF3PL5qDY8al96Fc1rDS7zJlwOtLAA0dKEu_dddiz4sUeDOmjnK8IAY7XdO4x0UHeb8XjXY6GpTTSbNMIEGz1kqTAorACAfKdDOrPWQk9Bwf6tfb1iyPkrh7DKwBFFXcBV-EFygtY6l-YRuukEgnwFh-KEKg5vvTtJCI-fngmWgbH_11sKYG7gR6OYJTKyts-__vr6hq6Y2Lfcvcwznd4hqM03x2Ky8qWdXHpE4mW2AvhRI4q7DvyV-KDTiCfOMoM8PbbD8KTLzgrGQVLRNTxhRutHmDpleLs7zgNOMSGTleG3HTGFFlCkvzDGKkhOWw9A7QojiRfVJR17SAJ9IEAvJrkEKs63uS2Z6WdbAISas6JLNHikEe5jw9mL2u9h28sv1jqSt2AM2Pkuo4i5-DWmAP8gSNKiJcnE-cuwhMOIfRz0000]--></g></svg>